<?xml version="1.0" encoding="utf-8"?>
<!-- Generator: Adobe Illustrator 18.1.1, SVG Export Plug-In . SVG Version: 6.00 Build 0)  -->
<svg version="1.1" id="Layer_1" xmlns="http://www.w3.org/2000/svg" xmlns:xlink="http://www.w3.org/1999/xlink" x="0px" y="0px"
	 viewBox="-243 245 512 512" enable-background="new -243 245 512 512" xml:space="preserve">
<g id="svgGrid">
	<line fill="none" stroke="#B35047" x1="-211" y1="245" x2="-211" y2="757"/>
	<line fill="none" stroke="#B35047" x1="-179" y1="245" x2="-179" y2="757"/>
	<line fill="none" stroke="#B35047" x1="-147" y1="245" x2="-147" y2="757"/>
	<line fill="none" stroke="#B35047" x1="-115" y1="245" x2="-115" y2="757"/>
	<line fill="none" stroke="#B35047" x1="-83" y1="245" x2="-83" y2="757"/>
	<line fill="none" stroke="#B35047" x1="-51" y1="245" x2="-51" y2="757"/>
	<line fill="none" stroke="#B35047" x1="-19" y1="245" x2="-19" y2="757"/>
	<line fill="none" stroke="#B35047" x1="13" y1="245" x2="13" y2="757"/>
	<line fill="none" stroke="#B35047" x1="45" y1="245" x2="45" y2="757"/>
	<line fill="none" stroke="#B35047" x1="77" y1="245" x2="77" y2="757"/>
	<line fill="none" stroke="#B35047" x1="109" y1="245" x2="109" y2="757"/>
	<line fill="none" stroke="#B35047" x1="141" y1="245" x2="141" y2="757"/>
	<line fill="none" stroke="#B35047" x1="173" y1="245" x2="173" y2="757"/>
	<line fill="none" stroke="#B35047" x1="205" y1="245" x2="205" y2="757"/>
	<line fill="none" stroke="#B35047" x1="237" y1="245" x2="237" y2="757"/>
	<line fill="none" stroke="#B35047" x1="-243" y1="277" x2="269" y2="277"/>
	<line fill="none" stroke="#B35047" x1="-243" y1="309" x2="269" y2="309"/>
	<line fill="none" stroke="#B35047" x1="-243" y1="341" x2="269" y2="341"/>
	<line fill="none" stroke="#B35047" x1="-243" y1="373" x2="269" y2="373"/>
	<line fill="none" stroke="#B35047" x1="-243" y1="405" x2="269" y2="405"/>
	<line fill="none" stroke="#B35047" x1="-243" y1="437" x2="269" y2="437"/>
	<line fill="none" stroke="#B35047" x1="-243" y1="469" x2="269" y2="469"/>
	<line fill="none" stroke="#B35047" x1="-243" y1="501" x2="269" y2="501"/>
	<line fill="none" stroke="#B35047" x1="-243" y1="533" x2="269" y2="533"/>
	<line fill="none" stroke="#B35047" x1="-243" y1="565" x2="269" y2="565"/>
	<line fill="none" stroke="#B35047" x1="-243" y1="597" x2="269" y2="597"/>
	<line fill="none" stroke="#B35047" x1="-243" y1="629" x2="269" y2="629"/>
	<line fill="none" stroke="#B35047" x1="-243" y1="661" x2="269" y2="661"/>
	<line fill="none" stroke="#B35047" x1="-243" y1="693" x2="269" y2="693"/>
	<line fill="none" stroke="#B35047" x1="-243" y1="725" x2="269" y2="725"/>
	<rect x="-243" y="245" fill="none" stroke="#B35047" width="512" height="512"/>
</g>
<path fill="#BBBBBB" d="M-19,533h64V405h96L13,277l-128,128h96V533z M77,461v49.4L223.5,565L13,643.5L-197.5,565L-51,510.4V461
	l-192,72v128l256,96l256-96V533L77,461z"/>
</svg>
