<?xml version="1.0" encoding="utf-8"?> <!-- Generator: IcoMoon.io --> <!DOCTYPE svg PUBLIC "-//W3C//DTD SVG 1.1//EN" "http://www.w3.org/Graphics/SVG/1.1/DTD/svg11.dtd"> <svg width="512" height="512" viewBox="0 0 512 512" xmlns="http://www.w3.org/2000/svg" xmlns:xlink="http://www.w3.org/1999/xlink" fill="#ffffff"><path d="M 446.134,193.245C 447.356,187.69, 448.00,181.921, 448.00,176.00c0.00-44.183-35.817-80.00-80.00-80.00c-7.111,0.00-14.007,0.934-20.566,2.676 C 335.035,60.00, 298.789,32.00, 256.00,32.00c-43.674,0.00-80.527,29.168-92.163,69.085C 152.466,97.774, 140.441,96.00, 128.00,96.00C 57.308,96.00,0.00,153.308,0.00,224.00 c0.00,70.694, 57.308,128.00, 128.00,128.00l 64.00,0.00 l0.00,96.00 l 128.00,0.00 l0.00-96.00 l 112.00,0.00 c 44.183,0.00, 80.00-35.816, 80.00-80.00C 512.00,232.64, 483.573,199.919, 446.134,193.245z M 288.00,320.00l0.00,96.00 l-64.00,0.00 l0.00-96.00 l-80.00,0.00 l 112.00-112.00l 112.00,112.00L 288.00,320.00 z" ></path></svg>