<?xml version="1.0" encoding="utf-8"?> <!-- Generator: IcoMoon.io --> <!DOCTYPE svg PUBLIC "-//W3C//DTD SVG 1.1//EN" "http://www.w3.org/Graphics/SVG/1.1/DTD/svg11.dtd"> <svg width="512" height="512" viewBox="0 0 512 512" xmlns="http://www.w3.org/2000/svg" xmlns:xlink="http://www.w3.org/1999/xlink" fill="#ffffff"><path d="M 512.00,328.771c0.00-41.045-28.339-75.45-66.498-84.74C 443.881,179.681, 391.273,128.00, 326.571,128.00 c-37.896,0.00-71.633,17.747-93.427,45.366c-12.221-15.799-31.345-25.98-52.854-25.98c-36.905,0.00-66.821,29.937-66.821,66.861 c0.00,3.218, 0.24,6.38, 0.682,9.477c-5.611-1.012-11.383-1.569-17.285-1.569C 43.367,222.154,0.00,265.548,0.00,319.076 C0.00,372.607, 43.367,416.00, 96.865,416.00l 328.131,0.00 l0.00-0.006 C 473.065,415.902, 512.00,376.888, 512.00,328.771z" ></path></svg>